<mxfile host="drawio-plugin" modified="2021-09-07T10:50:23.203Z" agent="5.0 (Windows NT 6.2; Win64; x64) AppleWebKit/537.36 (KHTML, like Gecko) Chrome/89.0.4389.114 Safari/537.36" etag="cdgBfYPHqx5tcWY2xvMg" version="14.7.4" type="embed"><diagram id="23iRSUPoRavnBvh4doch" name="Page-1"><mxGraphModel dx="228" dy="397" grid="1" gridSize="10" guides="1" tooltips="1" connect="1" arrows="1" fold="1" page="1" pageScale="1" pageWidth="1169" pageHeight="827" math="0" shadow="0"><root><mxCell id="0"/><mxCell id="1" parent="0"/><mxCell id="2" value="Shape" style="swimlane;fontStyle=1;align=center;verticalAlign=top;childLayout=stackLayout;horizontal=1;startSize=26;horizontalStack=0;resizeParent=1;resizeParentMax=0;resizeLast=0;collapsible=1;marginBottom=0;" vertex="1" parent="1"><mxGeometry x="400" y="328" width="160" height="86" as="geometry"/></mxCell><mxCell id="3" value="+ color: Color" style="text;strokeColor=none;fillColor=none;align=left;verticalAlign=top;spacingLeft=4;spacingRight=4;overflow=hidden;rotatable=0;points=[[0,0.5],[1,0.5]];portConstraint=eastwest;" vertex="1" parent="2"><mxGeometry y="26" width="160" height="26" as="geometry"/></mxCell><mxCell id="4" value="" style="line;strokeWidth=1;fillColor=none;align=left;verticalAlign=middle;spacingTop=-1;spacingLeft=3;spacingRight=3;rotatable=0;labelPosition=right;points=[];portConstraint=eastwest;" vertex="1" parent="2"><mxGeometry y="52" width="160" height="8" as="geometry"/></mxCell><mxCell id="5" value="..." style="text;strokeColor=none;fillColor=none;align=left;verticalAlign=top;spacingLeft=4;spacingRight=4;overflow=hidden;rotatable=0;points=[[0,0.5],[1,0.5]];portConstraint=eastwest;" vertex="1" parent="2"><mxGeometry y="60" width="160" height="26" as="geometry"/></mxCell><mxCell id="10" value="Color" style="swimlane;fontStyle=1;align=center;verticalAlign=top;childLayout=stackLayout;horizontal=1;startSize=26;horizontalStack=0;resizeParent=1;resizeParentMax=0;resizeLast=0;collapsible=1;marginBottom=0;fontColor=#f0f0f0;" vertex="1" parent="1"><mxGeometry x="630" y="328" width="160" height="86" as="geometry"/></mxCell><mxCell id="11" value="+ color: string" style="text;strokeColor=none;fillColor=none;align=left;verticalAlign=top;spacingLeft=4;spacingRight=4;overflow=hidden;rotatable=0;points=[[0,0.5],[1,0.5]];portConstraint=eastwest;" vertex="1" parent="10"><mxGeometry y="26" width="160" height="26" as="geometry"/></mxCell><mxCell id="12" value="" style="line;strokeWidth=1;fillColor=none;align=left;verticalAlign=middle;spacingTop=-1;spacingLeft=3;spacingRight=3;rotatable=0;labelPosition=right;points=[];portConstraint=eastwest;" vertex="1" parent="10"><mxGeometry y="52" width="160" height="8" as="geometry"/></mxCell><mxCell id="13" value="+ get(): string" style="text;strokeColor=none;fillColor=none;align=left;verticalAlign=top;spacingLeft=4;spacingRight=4;overflow=hidden;rotatable=0;points=[[0,0.5],[1,0.5]];portConstraint=eastwest;" vertex="1" parent="10"><mxGeometry y="60" width="160" height="26" as="geometry"/></mxCell><mxCell id="14" value="1" style="endArrow=open;html=1;endSize=12;startArrow=diamondThin;startSize=14;startFill=0;edgeStyle=orthogonalEdgeStyle;align=left;verticalAlign=bottom;noLabel=1;fontColor=none;" edge="1" parent="1"><mxGeometry x="-1" y="3" relative="1" as="geometry"><mxPoint x="560" y="380" as="sourcePoint"/><mxPoint x="630" y="380" as="targetPoint"/></mxGeometry></mxCell><mxCell id="15" value="Square" style="swimlane;fontStyle=1;align=center;verticalAlign=top;childLayout=stackLayout;horizontal=1;startSize=26;horizontalStack=0;resizeParent=1;resizeParentMax=0;resizeLast=0;collapsible=1;marginBottom=0;" vertex="1" parent="1"><mxGeometry x="425" y="510" width="160" height="86" as="geometry"/></mxCell><mxCell id="16" value="..." style="text;strokeColor=none;fillColor=none;align=left;verticalAlign=top;spacingLeft=4;spacingRight=4;overflow=hidden;rotatable=0;points=[[0,0.5],[1,0.5]];portConstraint=eastwest;" vertex="1" parent="15"><mxGeometry y="26" width="160" height="26" as="geometry"/></mxCell><mxCell id="17" value="" style="line;strokeWidth=1;fillColor=none;align=left;verticalAlign=middle;spacingTop=-1;spacingLeft=3;spacingRight=3;rotatable=0;labelPosition=right;points=[];portConstraint=eastwest;" vertex="1" parent="15"><mxGeometry y="52" width="160" height="8" as="geometry"/></mxCell><mxCell id="18" value="+ paint(): string" style="text;strokeColor=none;fillColor=none;align=left;verticalAlign=top;spacingLeft=4;spacingRight=4;overflow=hidden;rotatable=0;points=[[0,0.5],[1,0.5]];portConstraint=eastwest;" vertex="1" parent="15"><mxGeometry y="60" width="160" height="26" as="geometry"/></mxCell><mxCell id="19" value="Circle" style="swimlane;fontStyle=1;align=center;verticalAlign=top;childLayout=stackLayout;horizontal=1;startSize=26;horizontalStack=0;resizeParent=1;resizeParentMax=0;resizeLast=0;collapsible=1;marginBottom=0;" vertex="1" parent="1"><mxGeometry x="405" y="500" width="160" height="86" as="geometry"/></mxCell><mxCell id="20" value="..." style="text;strokeColor=none;align=left;verticalAlign=top;spacingLeft=4;spacingRight=4;overflow=hidden;rotatable=0;points=[[0,0.5],[1,0.5]];portConstraint=eastwest;fillColor=#2a2a2a;" vertex="1" parent="19"><mxGeometry y="26" width="160" height="26" as="geometry"/></mxCell><mxCell id="21" value="" style="line;strokeWidth=1;fillColor=none;align=left;verticalAlign=middle;spacingTop=-1;spacingLeft=3;spacingRight=3;rotatable=0;labelPosition=right;points=[];portConstraint=eastwest;" vertex="1" parent="19"><mxGeometry y="52" width="160" height="8" as="geometry"/></mxCell><mxCell id="22" value="+ paint(): string" style="text;strokeColor=none;align=left;verticalAlign=top;spacingLeft=4;spacingRight=4;overflow=hidden;rotatable=0;points=[[0,0.5],[1,0.5]];portConstraint=eastwest;fillColor=#2a2a2a;" vertex="1" parent="19"><mxGeometry y="60" width="160" height="26" as="geometry"/></mxCell><mxCell id="23" value="Triangle" style="swimlane;fontStyle=1;align=center;verticalAlign=top;childLayout=stackLayout;horizontal=1;startSize=26;horizontalStack=0;resizeParent=1;resizeParentMax=0;resizeLast=0;collapsible=1;marginBottom=0;" vertex="1" parent="1"><mxGeometry x="385" y="490" width="160" height="86" as="geometry"/></mxCell><mxCell id="24" value="..." style="text;strokeColor=none;align=left;verticalAlign=top;spacingLeft=4;spacingRight=4;overflow=hidden;rotatable=0;points=[[0,0.5],[1,0.5]];portConstraint=eastwest;labelBackgroundColor=none;fillColor=#2a2a2a;" vertex="1" parent="23"><mxGeometry y="26" width="160" height="26" as="geometry"/></mxCell><mxCell id="25" value="" style="line;strokeWidth=1;fillColor=none;align=left;verticalAlign=middle;spacingTop=-1;spacingLeft=3;spacingRight=3;rotatable=0;labelPosition=right;points=[];portConstraint=eastwest;" vertex="1" parent="23"><mxGeometry y="52" width="160" height="8" as="geometry"/></mxCell><mxCell id="26" value="+ paint(): string" style="text;strokeColor=none;align=left;verticalAlign=top;spacingLeft=4;spacingRight=4;overflow=hidden;rotatable=0;points=[[0,0.5],[1,0.5]];portConstraint=eastwest;fillColor=#2a2a2a;" vertex="1" parent="23"><mxGeometry y="60" width="160" height="26" as="geometry"/></mxCell><mxCell id="27" value="Black" style="swimlane;fontStyle=1;align=center;verticalAlign=top;childLayout=stackLayout;horizontal=1;startSize=26;horizontalStack=0;resizeParent=1;resizeParentMax=0;resizeLast=0;collapsible=1;marginBottom=0;labelBackgroundColor=none;fontColor=#f0f0f0;fillColor=#2a2a2a;" vertex="1" parent="1"><mxGeometry x="650" y="490" width="160" height="86" as="geometry"/></mxCell><mxCell id="28" value="..." style="text;strokeColor=none;fillColor=none;align=left;verticalAlign=top;spacingLeft=4;spacingRight=4;overflow=hidden;rotatable=0;points=[[0,0.5],[1,0.5]];portConstraint=eastwest;" vertex="1" parent="27"><mxGeometry y="26" width="160" height="26" as="geometry"/></mxCell><mxCell id="29" value="" style="line;strokeWidth=1;fillColor=none;align=left;verticalAlign=middle;spacingTop=-1;spacingLeft=3;spacingRight=3;rotatable=0;labelPosition=right;points=[];portConstraint=eastwest;" vertex="1" parent="27"><mxGeometry y="52" width="160" height="8" as="geometry"/></mxCell><mxCell id="30" value="..." style="text;strokeColor=none;fillColor=none;align=left;verticalAlign=top;spacingLeft=4;spacingRight=4;overflow=hidden;rotatable=0;points=[[0,0.5],[1,0.5]];portConstraint=eastwest;" vertex="1" parent="27"><mxGeometry y="60" width="160" height="26" as="geometry"/></mxCell><mxCell id="31" value="Orange" style="swimlane;fontStyle=1;align=center;verticalAlign=top;childLayout=stackLayout;horizontal=1;startSize=26;horizontalStack=0;resizeParent=1;resizeParentMax=0;resizeLast=0;collapsible=1;marginBottom=0;labelBackgroundColor=none;fontColor=#f0f0f0;fillColor=#2a2a2a;" vertex="1" parent="1"><mxGeometry x="630" y="480" width="170" height="86" as="geometry"/></mxCell><mxCell id="32" value="..." style="text;strokeColor=none;align=left;verticalAlign=top;spacingLeft=4;spacingRight=4;overflow=hidden;rotatable=0;points=[[0,0.5],[1,0.5]];portConstraint=eastwest;fillColor=#2a2a2a;" vertex="1" parent="31"><mxGeometry y="26" width="170" height="26" as="geometry"/></mxCell><mxCell id="33" value="" style="line;strokeWidth=1;fillColor=none;align=left;verticalAlign=middle;spacingTop=-1;spacingLeft=3;spacingRight=3;rotatable=0;labelPosition=right;points=[];portConstraint=eastwest;" vertex="1" parent="31"><mxGeometry y="52" width="170" height="8" as="geometry"/></mxCell><mxCell id="34" value="..." style="text;strokeColor=none;align=left;verticalAlign=top;spacingLeft=4;spacingRight=4;overflow=hidden;rotatable=0;points=[[0,0.5],[1,0.5]];portConstraint=eastwest;fillColor=#2a2a2a;" vertex="1" parent="31"><mxGeometry y="60" width="170" height="26" as="geometry"/></mxCell><mxCell id="35" value="Extends" style="endArrow=block;endSize=16;endFill=0;html=1;exitX=0.5;exitY=0;exitDx=0;exitDy=0;entryX=0.405;entryY=0.999;entryDx=0;entryDy=0;entryPerimeter=0;noLabel=1;fontColor=none;" edge="1" parent="1" source="23" target="5"><mxGeometry width="160" relative="1" as="geometry"><mxPoint x="540" y="550" as="sourcePoint"/><mxPoint x="465" y="416" as="targetPoint"/></mxGeometry></mxCell><mxCell id="36" value="Extends" style="endArrow=block;endSize=16;endFill=0;html=1;entryX=0.405;entryY=0.999;entryDx=0;entryDy=0;entryPerimeter=0;noLabel=1;fontColor=none;" edge="1" parent="1"><mxGeometry width="160" relative="1" as="geometry"><mxPoint x="720" y="480" as="sourcePoint"/><mxPoint x="720" y="414.0039999999999" as="targetPoint"/></mxGeometry></mxCell></root></mxGraphModel></diagram></mxfile>